<?xml version="1.0" standalone="no"?><!DOCTYPE svg PUBLIC "-//W3C//DTD SVG 1.1//EN" "http://www.w3.org/Graphics/SVG/1.1/DTD/svg11.dtd"><svg class="icon" height="512" viewBox="0 0 1024 1024" version="1.1" xmlns="http://www.w3.org/2000/svg"><path d="M299.52 189.44c2.56-2.56 5.12-5.12 5.12-10.24 0-17.92 0-33.28 0-51.2 0-15.36 0-28.16 0-43.52L209.92 84.48l0 163.84c2.56 0 2.56 0 2.56-2.56C243.2 227.84 271.36 209.92 299.52 189.44zM957.44 378.88C816.64 284.16 678.4 186.88 537.6 89.6c-20.48-15.36-30.72-15.36-51.2 0C350.72 184.32 215.04 276.48 79.36 368.64c-7.68 5.12-12.8 7.68-20.48 12.8-12.8 10.24-15.36 25.6-10.24 38.4 5.12 12.8 17.92 23.04 33.28 20.48 7.68 0 17.92-5.12 25.6-10.24 130.56-89.6 263.68-181.76 394.24-271.36 7.68-5.12 10.24-5.12 17.92 0 115.2 79.36 230.4 158.72 343.04 238.08 17.92 12.8 38.4 25.6 56.32 38.4 10.24 7.68 23.04 7.68 35.84 2.56 12.8-5.12 17.92-15.36 17.92-28.16C975.36 396.8 967.68 386.56 957.44 378.88zM844.8 409.6 542.72 217.6c-20.48-12.8-43.52-12.8-64 0L460.8 230.4c0 5.12 2.56 7.68 5.12 12.8 15.36 25.6 33.28 53.76 48.64 79.36 2.56 5.12 7.68 10.24 15.36 5.12 7.68-5.12 5.12-10.24 0-15.36-15.36-23.04-28.16-46.08-43.52-69.12-2.56-2.56-5.12-5.12-10.24-10.24 7.68-5.12 12.8-7.68 17.92-12.8 2.56 2.56 5.12 5.12 5.12 7.68 15.36 25.6 30.72 48.64 46.08 74.24 10.24 15.36 5.12 30.72-10.24 40.96-12.8 7.68-30.72 5.12-40.96-10.24-17.92-28.16-35.84-53.76-51.2-81.92-2.56-2.56-2.56-7.68-5.12-10.24L186.88 409.6c-17.92 10.24-25.6 30.72-25.6 48.64l0 427.52c0 33.28 25.6 58.88 58.88 58.88l593.92 0c33.28 0 58.88-25.6 58.88-58.88L872.96 458.24C872.96 437.76 862.72 419.84 844.8 409.6zM312.32 463.36l417.28 0 0 43.52L312.32 506.88 312.32 463.36zM312.32 535.04l417.28 0 0 43.52L312.32 578.56 312.32 535.04zM312.32 606.72l240.64 0 0 43.52-240.64 0L312.32 606.72zM312.32 675.84l240.64 0 0 43.52-240.64 0L312.32 675.84zM568.32 832c-20.48 20.48-33.28 23.04-58.88 25.6 0 2.56-2.56 5.12-10.24 7.68-12.8 5.12-23.04 0-28.16-5.12s-2.56-10.24-7.68-10.24c-5.12-2.56-5.12 12.8-12.8 17.92-7.68 5.12-12.8 5.12-20.48 0-7.68-2.56-5.12-35.84-5.12-35.84s0-15.36-5.12-15.36c-7.68 0-10.24 35.84-12.8 35.84s-10.24 0-12.8-5.12 5.12-38.4 5.12-38.4 10.24-25.6 28.16-15.36c20.48 10.24 5.12 61.44 15.36 58.88 7.68 0 2.56-15.36 12.8-23.04 2.56-2.56 7.68-2.56 12.8 0 7.68 5.12 10.24 17.92 12.8 20.48 2.56 2.56 10.24-2.56 12.8-5.12 0 0 2.56 0 2.56 0 5.12-25.6 5.12-38.4 28.16-58.88l40.96-40.96 40.96 40.96L568.32 832zM788.48 670.72l-102.4 89.6c-2.56 2.56-7.68 0-7.68-2.56l0-10.24 74.24-74.24-12.8-12.8-117.76 117.76-40.96-40.96 145.92-145.92c12.8-12.8 30.72-12.8 40.96 0l0 0c12.8 12.8 12.8 30.72 0 40.96l-15.36 15.36 12.8 12.8 12.8-12.8c2.56-2.56 7.68-2.56 10.24 0l5.12 5.12C793.6 660.48 796.16 665.6 788.48 670.72z" /></svg>